<?xml version="1.0" standalone="no"?>
<!DOCTYPE svg PUBLIC "-//W3C//DTD SVG 20010904//EN"
 "http://www.w3.org/TR/2001/REC-SVG-20010904/DTD/svg10.dtd">
<svg version="1.0" xmlns="http://www.w3.org/2000/svg"
 width="512.000000pt" height="512.000000pt" viewBox="0 0 512.000000 512.000000"
 preserveAspectRatio="xMidYMid meet">
<metadata>
Created by potrace 1.11, written by Peter Selinger 2001-2013
</metadata>
<g transform="translate(0.000000,512.000000) scale(0.100000,-0.100000)"
fill="#000000" stroke="none">
<path d="M2897 5044 c-1 -1 -31 -5 -67 -8 -36 -4 -87 -9 -115 -12 -27 -2 -79
-9 -115 -14 -116 -17 -134 -19 -220 -31 -204 -27 -708 -177 -855 -253 -17 -9
-33 -16 -37 -16 -15 0 -248 -114 -363 -178 -136 -75 -228 -140 -348 -244 -108
-95 -136 -126 -219 -235 -113 -152 -208 -362 -234 -518 -15 -90 -9 -372 10
-455 9 -41 19 -86 22 -99 17 -84 97 -291 169 -436 172 -350 459 -752 795
-1110 107 -115 420 -424 515 -510 49 -44 96 -87 104 -95 22 -21 376 -317 431
-361 81 -64 333 -226 441 -283 252 -133 395 -145 597 -50 162 76 298 249 503
639 77 146 280 652 296 735 2 13 8 29 12 35 5 5 32 82 61 170 28 88 58 178 65
200 80 234 188 688 231 975 7 52 19 129 25 170 6 41 14 102 18 135 8 81 8 441
-1 536 -8 91 -72 384 -99 451 -114 290 -319 529 -585 681 -84 49 -100 55 -88
35 4 -7 3 -8 -5 -4 -6 4 -9 11 -6 15 6 11 -203 81 -285 96 -8 1 -46 7 -85 13
-38 6 -90 14 -115 18 -40 7 -447 14 -453 8z"/>
</g>
</svg>
